<?xml version="1.0" encoding="utf-8"?>
<!-- Generator: Adobe Illustrator 22.0.1, SVG Export Plug-In . SVG Version: 6.00 Build 0)  -->
<svg version="1.1" id="Layer_1" xmlns="http://www.w3.org/2000/svg" xmlns:xlink="http://www.w3.org/1999/xlink" x="0px" y="0px"
	 viewBox="0 0 511.9 511.9" style="enable-background:new 0 0 511.9 511.9;" xml:space="preserve">
<g>
	<g>
		<path d="M185.2,229.8H68.3c-4.4,0-8-3.6-8-8c0-4.4,3.6-8,8-8h116.9c4.4,0,8,3.6,8,8C193.3,226.2,189.7,229.8,185.2,229.8z"/>
	</g>
	<g>
		<path d="M103.1,320.4c-1.6,0-2.9-1.1-3.2-2.7l-17.4-99.9c-0.3-1.8,0.9-3.5,2.7-3.8c1.8-0.3,3.5,0.9,3.8,2.7l17.4,99.9
			c0.3,1.8-0.9,3.5-2.7,3.8C103.5,320.4,103.3,320.4,103.1,320.4z"/>
	</g>
	<g>
		<path d="M123.5,320.4c-1.6,0-2.9-1.1-3.2-2.7l-17.4-99.9c-0.3-1.8,0.9-3.5,2.7-3.8c1.8-0.3,3.5,0.9,3.8,2.7l17.4,99.9
			c0.3,1.8-0.9,3.5-2.7,3.8C123.9,320.4,123.7,320.4,123.5,320.4z"/>
	</g>
	<g>
		<path d="M317,387.2c-10.3,0-45.7-5.4-75.4-73.7c-33.7-77.2-67.2-86.6-67.5-86.7c-2.8-0.7-4.5-3.5-3.7-6.3c0.7-2.8,3.5-4.5,6.3-3.7
			c1.6,0.4,38.8,10.8,74.5,92.6c31.4,72,66.9,67.4,67.2,67.4c2.8-0.4,5.5,1.5,5.9,4.3c0.4,2.8-1.5,5.5-4.3,5.9
			C319.7,387.1,318.6,387.2,317,387.2z"/>
	</g>
	<g>
		<path d="M84.9,316.9H60.7c-3.7,0-6.6-3-6.6-6.6s3-6.6,6.6-6.6h24.2c3.7,0,6.6,3,6.6,6.6S88.5,316.9,84.9,316.9z"/>
	</g>
	<g>
		<path d="M128.6,316.9h-24.2c-3.7,0-6.6-3-6.6-6.6s3-6.6,6.6-6.6h24.2c3.7,0,6.6,3,6.6,6.6S132.2,316.9,128.6,316.9z"/>
	</g>
	<g>
		<path d="M172.3,316.9H148c-3.7,0-6.6-3-6.6-6.6s3-6.6,6.6-6.6h24.2c3.7,0,6.6,3,6.6,6.6S175.9,316.9,172.3,316.9z"/>
	</g>
	<g>
		<path d="M215.9,316.9h-24.2c-3.7,0-6.6-3-6.6-6.6s3-6.6,6.6-6.6h24.2c3.7,0,6.6,3,6.6,6.6S219.6,316.9,215.9,316.9z"/>
	</g>
	<g>
		<path d="M259.6,316.9h-24.2c-3.7,0-6.6-3-6.6-6.6s3-6.6,6.6-6.6h24.2c3.7,0,6.6,3,6.6,6.6S263.3,316.9,259.6,316.9z"/>
	</g>
	<g>
		<path d="M303.3,316.9h-24.2c-3.7,0-6.6-3-6.6-6.6s3-6.6,6.6-6.6h24.2c3.7,0,6.6,3,6.6,6.6S307,316.9,303.3,316.9z"/>
	</g>
	<g>
		<path d="M347,316.9h-24.2c-3.7,0-6.6-3-6.6-6.6s3-6.6,6.6-6.6H347c3.7,0,6.6,3,6.6,6.6S350.7,316.9,347,316.9z"/>
	</g>
	<g>
		<path d="M407.3,390c-2.6,0-4.6-0.1-5.4-0.2H50.6c-4.4,0-7.9-3.6-7.9-7.9c0-4.4,3.6-7.9,7.9-7.9h351.7c0.3,0,0.6,0,0.9,0
			c0.2,0,23.7,2.4,39.5-11.8c10-9,15-22.9,15-41.5c0-34.5-39.5-47.2-41.2-47.7c-4.2-1.3-6.5-5.7-5.2-9.9c1.3-4.2,5.7-6.5,9.9-5.3
			c2.1,0.7,52.4,16.6,52.4,62.9c0,23.3-6.9,41.3-20.4,53.4C437.4,388.1,417.2,390,407.3,390z"/>
	</g>
	<g>
		<path d="M455.7,367.7c-1.2,0-2.5-0.2-3.8-0.7l-91.6-32.6H59.6c-6.2,0-11.2-5-11.2-11.2c0-6.2,5-11.2,11.2-11.2h302.7
			c1.3,0,2.6,0.2,3.8,0.6l93.4,33.2c5.8,2.1,8.9,8.5,6.8,14.3C464.6,364.8,460.3,367.7,455.7,367.7z"/>
	</g>
	<g>
		<path d="M95.8,388.7c-3.8,0-6.8-3.1-6.8-6.8v-58.6c0-3.8,3.1-6.8,6.8-6.8c3.8,0,6.8,3.1,6.8,6.8v58.6
			C102.6,385.6,99.6,388.7,95.8,388.7z"/>
	</g>
	<g>
		<path d="M229.3,389c-2.5,0-5-1.4-6.2-3.8l-43.6-86.7L49.1,137.3c-2.4-3-2-7.4,1-9.8c3-2.4,7.4-2,9.8,1l130.9,161.7
			c0.3,0.4,0.6,0.8,0.8,1.2l43.9,87.4c1.7,3.4,0.3,7.6-3.1,9.3C231.5,388.8,230.4,389,229.3,389z"/>
	</g>
	<g>
		<path d="M72.6,324.3c-3.8,0-6.8-3.1-6.8-6.8V153.2c0-3.8,3.1-6.8,6.8-6.8c3.8,0,6.8,3.1,6.8,6.8v164.3
			C79.4,321.3,76.3,324.3,72.6,324.3z"/>
	</g>
</g>
</svg>
