<?xml version="1.0" encoding="utf-8"?>
<!-- Generator: Adobe Illustrator 22.0.1, SVG Export Plug-In . SVG Version: 6.00 Build 0)  -->
<svg version="1.1" id="Layer_1" xmlns="http://www.w3.org/2000/svg" xmlns:xlink="http://www.w3.org/1999/xlink" x="0px" y="0px"
	 viewBox="0 0 511.9 511.9" style="enable-background:new 0 0 511.9 511.9;" xml:space="preserve">
<g>
	<g>
		<path d="M401.3,296.5V152.8c0-3.8-3.1-6.8-6.8-6.8h-20v-20.6c0-10.9-8.9-19.7-19.7-19.7c-10.9,0-19.7,8.9-19.7,19.7V146h-70.3
			v-20.6c0-10.9-8.9-19.7-19.7-19.7c-10.9,0-19.7,8.9-19.7,19.7V146h-70.3v-20.6c0-10.9-8.9-19.7-19.7-19.7
			c-10.9,0-19.7,8.9-19.7,19.7V146h-20c-3.8,0-6.8,3.1-6.8,6.8v208.5c0,3.8,3.1,6.8,6.8,6.8h234.3c8.8,17.3,26.8,29.2,47.5,29.2
			c29.3,0,53.3-23.9,53.3-53.3C430.8,323.2,418.7,305.2,401.3,296.5z M354.9,119.3c3.4,0,6.1,2.7,6.1,6.1v20.2h-12.2v-20.2l0,0
			C348.8,122,351.5,119.3,354.9,119.3z M239,125.3c0-3.4,2.7-6.1,6.1-6.1c3.4,0,6.1,2.7,6.1,6.1v20.2h-12.2v-20.2H239z M129.3,125.3
			c0-3.4,2.7-6.1,6.1-6.1c3.4,0,6.1,2.7,6.1,6.1v20.2h-12.2v-20.2H129.3z M102.5,354.5V159.7h285.2v132.2c-3.3-0.7-6.8-1-10.3-1
			c-0.8,0-1.5,0-2.3,0V179.6c0-3.8-3.1-6.8-6.8-6.8H121.9c-3.8,0-6.8,3.1-6.8,6.8v154.9c0,3.8,3.1,6.8,6.8,6.8h202.4
			c0,0.9-0.1,1.8-0.1,2.7c0,3.5,0.3,7.1,1,10.5H102.5z M326.7,327.7h-198V186.4h232.9v106.8C345.1,298.3,332.1,311.3,326.7,327.7z
			 M377.4,383.7c-21.8,0-39.7-17.7-39.7-39.7s17.7-39.7,39.7-39.7c21.8,0,39.7,17.7,39.7,39.7C417.1,365.9,399.3,383.7,377.4,383.7z
			"/>
	</g>
</g>
<g>
	<g>
		<path d="M402.2,327c-2.6-2.6-6.9-2.6-9.7,0l-24.9,24.9l-8.1-8.1c-2.6-2.6-6.9-2.6-9.7,0c-2.6,2.6-2.6,6.9,0,9.7l13,13
			c1.4,1.4,3.1,2,4.8,2s3.5-0.7,4.8-2l29.7-29.7C405,333.9,405,329.6,402.2,327z"/>
	</g>
</g>
<g>
	<g>
		<path d="M265.7,279.1h-18.7c1.4-1.1,2.6-2.4,4-3.8c13.8-13.1,20.4-23.5,20.4-32.2c0-14.4-11.7-26.2-26.2-26.2
			s-26.2,11.7-26.2,26.2c0,3.8,3.1,6.8,6.8,6.8c3.8,0,6.8-3.1,6.8-6.8c0-6.9,5.7-12.6,12.6-12.6c6.8,0,12.6,5.8,12.6,12.6
			c0,7.5-17.5,25.1-33.8,37.2c-2.4,1.7-3.3,4.8-2.4,7.6c0.9,2.8,3.5,4.7,6.5,4.7H266c3.8,0,6.8-3.1,6.8-6.8
			C272.6,282.2,269.5,279.1,265.7,279.1z"/>
	</g>
</g>
</svg>
