<?xml version="1.0" encoding="utf-8"?>
<!-- Generator: Adobe Illustrator 22.0.1, SVG Export Plug-In . SVG Version: 6.00 Build 0)  -->
<svg version="1.1" id="Layer_1" xmlns="http://www.w3.org/2000/svg" xmlns:xlink="http://www.w3.org/1999/xlink" x="0px" y="0px"
	 viewBox="0 0 511.9 511.9" style="enable-background:new 0 0 511.9 511.9;" xml:space="preserve">
<g>
	<g>
		<path d="M436,227c1.2,0.6,2.5,0.9,3.8,0.9c1.5,0,2.9-0.4,4.2-1.2c2.4-1.5,3.9-4.1,3.9-7v-32.7c0-3-1.7-5.8-4.4-7.2l-187.8-98
			c-2.4-1.2-5.2-1.2-7.6,0l-187.8,98c-2.7,1.4-4.4,4.2-4.4,7.2v32.7c0,2.9,1.5,5.5,3.9,7c2.4,1.5,5.5,1.6,8,0.3l20.7-10.8v175.1
			h-8.2c-4.5,0-8.2,3.6-8.2,8.2c0,4.5,3.7,8.2,8.2,8.2h106.1h130.6h22.2l2.5,10.2c0.9,3.6,4.2,6.2,7.9,6.2h81.6c3.8,0,7-2.5,7.9-6.2
			l8.2-32.7c0.6-2.4,0-5-1.5-7c-1.5-2-3.9-3.1-6.4-3.1h-24.5V216.2L436,227z M309.1,391.3H194.8v-81.7c0-31.5,25.6-57.2,57.2-57.2
			c31.5,0,57.2,25.6,57.2,57.2V391.3z M341.8,374.9c-2.5,0-4.9,1.2-6.4,3.1c-1.5,2-2.1,4.6-1.5,7l1.5,6.2h-10v-81.7
			c0-40.5-33-73.5-73.5-73.5c-40.5,0-73.5,33-73.5,73.5v81.7H105v-16.3h40.8c4.5,0,8.2-3.7,8.2-8.2c0-4.5-3.7-8.2-8.2-8.2H105V207.7
			L252,131l147,76.7v167.2H341.8z M429.3,391.3l-4.1,16.3h-68.9l-4.1-16.3H429.3z M255.7,114.6c-1.2-0.6-2.5-0.9-3.8-0.9
			c-1.3,0-2.6,0.3-3.8,0.9L72.3,206.3v-14.2L252,98.4l179.6,93.7v14.2L255.7,114.6z"/>
	</g>
</g>
<g>
	<g>
		<path d="M288,195.3l2.4-2.4c3.2-3.2,3.2-8.4,0-11.5c-3.2-3.2-8.4-3.2-11.5,0l-5.8,5.8h-42.2l-5.8-5.8c-3.2-3.2-8.4-3.2-11.5,0
			c-3.2,3.2-3.2,8.4,0,11.5l2.4,2.4l-2.4,2.4c-3.2,3.2-3.2,8.4,0,11.5c1.6,1.6,3.7,2.4,5.8,2.4c2.1,0,4.2-0.8,5.8-2.4l5.8-5.8h42.2
			l5.8,5.8c1.6,1.6,3.7,2.4,5.8,2.4c2.1,0,4.2-0.8,5.8-2.4c3.2-3.2,3.2-8.4,0-11.5L288,195.3z"/>
	</g>
</g>
</svg>
