<?xml version="1.0" encoding="utf-8"?>
<!-- Generator: Adobe Illustrator 22.0.1, SVG Export Plug-In . SVG Version: 6.00 Build 0)  -->
<svg version="1.1" id="Layer_1" xmlns="http://www.w3.org/2000/svg" xmlns:xlink="http://www.w3.org/1999/xlink" x="0px" y="0px"
	 viewBox="0 0 511.9 511.9" style="enable-background:new 0 0 511.9 511.9;" xml:space="preserve">
<path d="M379.1,275.5l-39.7-39.7c-2.1-2.1-4.9-3.3-7.9-3.3h-68.2v-19h44.2c6.2,0,11.2-5,11.2-11.2V123c0-6.2-5-11.2-11.2-11.2h-44.2
	V99.2c0-6.2-5-11.2-11.2-11.2c-6.2,0-11.2,5-11.2,11.2v12.7h-68.2c-3,0-5.8,1.2-7.9,3.3l-39.7,39.7c-4.4,4.4-4.4,11.5,0,15.8
	l39.7,39.7c2.1,2.1,4.9,3.3,7.9,3.3h68.2v19h-44.2c-6.2,0-11.2,5-11.2,11.2v79.3c0,6.2,5,11.2,11.2,11.2h44.2v66.5
	c0,6.2,5,11.2,11.2,11.2c6.2,0,11.2-5,11.2-11.2v-66.5h68.2c3,0,5.8-1.2,7.9-3.3l39.7-39.7c2.1-2.1,3.3-4.9,3.3-7.9
	C382.4,280.4,381.2,277.6,379.1,275.5z M148.8,162.7l28.5-28.5h119v57h-119L148.8,162.7z M326.9,311.9h-119v-56.9h119l28.5,28.5
	L326.9,311.9z"/>
</svg>
