<?xml version="1.0" encoding="utf-8"?>
<!-- Generator: Adobe Illustrator 22.0.1, SVG Export Plug-In . SVG Version: 6.00 Build 0)  -->
<svg version="1.1" id="Layer_1" xmlns="http://www.w3.org/2000/svg" xmlns:xlink="http://www.w3.org/1999/xlink" x="0px" y="0px"
	 viewBox="0 0 511.9 511.9" style="enable-background:new 0 0 511.9 511.9;" xml:space="preserve">
<g>
	<g>
		<path d="M473.4,273.5l-64.6-49.1c-5-12.6-28.2-65.4-71.2-83.3c-0.6-0.3-1.2-0.5-1.8-0.7l11.1-44.9c0.8-3.1-0.1-6.4-2.4-8.7
			c-2.3-2.3-5.5-3.3-8.7-2.6c-2.6,0.6-58,13.2-89.3,48.2c-4.6-0.2-9.3-0.4-13.9-0.4c-27.1,0-54.4,4-81.1,12
			c-21.3,6.4-42.3,15.3-62.4,26.4c-34.2,19-53.9,37.9-54.7,38.7c-3.4,3.3-3.8,8.7-0.8,12.5l161,200.4c1.8,2.2,4.4,3.5,7.2,3.5
			c0.5,0,1.1-0.1,1.6-0.1c43.9-7.9,70.7-30.3,85.4-47.7c12.8-15.1,19-29.1,21.1-34.6l22.1-21c16,3.6,62.4,13.8,77.7,13.8
			c19.6,0,45.8-19.4,48.8-21.6c1-0.8,1.9-1.7,2.5-2.9l4.6-8.2c0,0,0,0,0,0l10-17.8C478.2,281.4,477.1,276.3,473.4,273.5z M410,317.3
			c-13.1,0-60.9-10.4-78.3-14.4l-30.4-7.8c-5-1.3-10,1.7-11.3,6.7c-1.3,5,1.7,10,6.7,11.3l14.3,3.7l-15.2,14.5
			c-1.1,1.1-1.9,2.4-2.4,3.9c-0.1,0.1-5,15.1-19,31.3c-17.4,20.3-40.5,33.7-68.7,39.7L53.8,217c8.1-6.8,23.6-18.7,45-30.5
			c18.9-10.4,38.5-18.7,58.5-24.7c24.8-7.4,50.2-11.1,75.4-11.1c1.1,0,2.1,0,3.2,0c0.3,2.7,1.8,5.3,4.3,6.9
			c4.3,2.7,10.1,1.4,12.8-2.9c11.9-18.9,33.5-31.9,52.2-40.3c-9,15.6-18.9,37.4-22.8,61.7c-0.8,5.1,2.7,9.8,7.7,10.6
			c0.5,0.1,1,0.1,1.5,0.1c4.5,0,8.4-3.3,9.2-7.8c3.3-20.8,11.9-39.9,19.8-54l-10.2,41c-1.2,5,1.8,10,6.8,11.2
			c0.7,0.2,1.5,0.3,2.2,0.3c4.2,0,7.9-2.8,9-7l2.9-11.9c39.8,17.1,60.9,74.2,61.1,74.7c0.6,1.7,1.7,3.2,3.1,4.2l36.4,27.7l-1.9,19.5
			c-0.3,3.3,1.2,6.6,3.9,8.5l11.3,7.9C435.5,308,419.3,317.3,410,317.3z M454.7,285.2l-5.7-4l0.3-2.7l6.4,4.9L454.7,285.2z"/>
	</g>
</g>
<g>
	<g>
		<path d="M356.5,205.4c-5.1,0-9.3,4.2-9.3,9.3s4.1,9.3,9.3,9.3c5.1,0,9.3-4.2,9.3-9.3S361.6,205.4,356.5,205.4z"/>
	</g>
</g>
</svg>
